<svg width="540" height="562" viewBox="0 0 540 562" fill="none" xmlns="http://www.w3.org/2000/svg">
<rect y="67.3464" width="491.766" height="385.376" rx="97" transform="rotate(-7.87128 0 67.3464)" fill="#FFCB00"/>
<path d="M304.457 491.094C293.818 501.531 276.118 491.746 279.298 477.186L311.287 330.716C313.429 320.908 324.413 315.932 333.199 320.789L408.232 362.269C417.018 367.125 418.646 379.074 411.48 386.104L304.457 491.094Z" fill="#FFCB00"/>
<path d="M112.25 191.079L125.766 294.398L184.058 286.773C188.706 286.165 192.404 286.83 195.153 288.768C197.966 290.698 199.597 293.374 200.044 296.795C200.5 300.281 199.645 303.282 197.479 305.798C195.305 308.249 191.862 309.783 187.149 310.399L117.721 319.482C111.459 320.301 106.759 319.504 103.62 317.092C100.546 314.67 98.6032 310.361 97.7925 304.164L83.491 194.842C82.7309 189.032 83.452 184.506 85.6541 181.263C87.9208 178.012 91.1844 176.107 95.445 175.55C99.7701 174.984 103.446 175.981 106.473 178.539C109.556 181.025 111.481 185.205 112.25 191.079ZM254.248 154.775C268.967 152.85 281.98 154.201 293.287 158.828C304.651 163.382 313.766 170.823 320.633 181.153C327.491 191.418 331.891 203.974 333.834 218.821C335.269 229.795 335.089 239.963 333.294 249.325C331.498 258.686 328.061 267.048 322.984 274.409C317.906 281.771 311.27 287.76 303.076 292.378C294.882 296.995 285.201 300.035 274.033 301.495C262.93 302.948 252.756 302.473 243.512 300.071C234.26 297.605 226.27 293.496 219.543 287.744C212.815 281.993 207.335 274.732 203.102 265.962C198.933 257.184 196.152 247.469 194.759 236.818C193.332 225.908 193.572 215.7 195.48 206.192C197.452 196.676 200.99 188.334 206.093 181.167C211.196 173.999 217.788 168.179 225.87 163.708C233.944 159.172 243.403 156.194 254.248 154.775ZM304.662 222.44C303.303 212.047 300.446 203.262 296.093 196.083C291.739 188.905 286.179 183.789 279.41 180.735C272.698 177.608 265.307 176.572 257.238 177.628C251.492 178.379 246.31 180.173 241.691 183.01C237.128 185.774 233.342 189.453 230.332 194.049C227.386 198.637 225.303 204.293 224.082 211.019C222.917 217.672 222.858 225 223.905 233.005C224.961 241.074 226.915 248.238 229.77 254.496C232.688 260.746 236.27 265.793 240.516 269.637C244.817 273.407 249.496 276.045 254.551 277.551C259.672 279.048 265.104 279.42 270.85 278.669C278.209 277.706 284.714 274.984 290.365 270.502C296.081 266.011 300.244 259.689 302.854 251.534C305.529 243.371 306.132 233.673 304.662 222.44ZM379.31 156.143L392.826 259.462L451.119 251.836C455.767 251.228 459.465 251.893 462.214 253.832C465.027 255.762 466.657 258.437 467.105 261.859C467.561 265.345 466.706 268.345 464.54 270.861C462.365 273.312 458.922 274.846 454.21 275.463L384.782 284.545C378.52 285.364 373.82 284.568 370.681 282.155C367.606 279.734 365.664 275.425 364.853 269.227L350.551 159.905C349.791 154.095 350.512 149.569 352.715 146.326C354.981 143.075 358.245 141.171 362.505 140.613C366.831 140.047 370.506 141.044 373.533 143.603C376.616 146.088 378.542 150.268 379.31 156.143Z" fill="#7A3DB4"/>
</svg>
